<?xml version="1.0" encoding="utf-8"?>
<svg xmlns="http://www.w3.org/2000/svg" xmlns:xlink="http://www.w3.org/1999/xlink" viewBox="0 0 100 15">
<g clip-path="url(#clip0)">
<path d="M34.2226 14.2153C34.0839 13.9343 27.4489 0.923362 27.4489 0.923362C27.2737 0.569347 26.8066 0.284676 26.4161 0.284676H25.6131C25.2226 0.284676 24.7591 0.572997 24.5912 0.930661L18.2445 14.1861C18.0693 14.5365 18.2591 14.7883 18.6533 14.7883H20.1204C20.6971 14.7883 20.9635 14.5256 21.1204 14.2044C21.2774 13.8796 21.6241 13.1788 21.6934 13.0365C21.781 12.8431 22.062 12.7263 22.4562 12.7263L29.2847 12.7299C29.6752 12.7299 29.9307 12.8029 30.0475 13.0365C30.1241 13.1861 30.4708 13.8175 30.6423 14.1642C30.8139 14.5073 31.1058 14.7883 31.6679 14.7883H33.7956C34.1898 14.7883 34.3613 14.4891 34.2226 14.2153ZM28.1387 10.6788L23.438 10.6752C23.0438 10.6752 22.8613 10.3832 23.0256 10.0292L25.5256 4.67154C25.6934 4.31387 25.9635 4.31752 26.1241 4.67519L28.5584 10.0292C28.719 10.3869 28.5329 10.6788 28.1387 10.6788Z" fill="currentColor"/>
<path d="M76.4818 1.02555V14.1788C76.4818 14.5401 76.8029 14.7883 77.1971 14.7883H78.9307C79.3248 14.7883 79.646 14.5365 79.646 14.146V0.999999C79.646 0.605838 79.3905 0.28467 79 0.28467H77.1971C76.8066 0.28102 76.4818 0.525546 76.4818 1.02555Z" fill="currentColor"/>
<path d="M47.4234 9.26278C47.1971 8.94161 47.3212 8.58394 47.6971 8.47446C47.6971 8.47446 49.1971 8.02555 49.9161 7.37956C50.6314 6.73723 50.9927 5.80657 50.9927 4.59124C50.9927 3.79927 50.854 3.13139 50.5767 2.5876C50.3029 2.04745 49.9051 1.60584 49.3905 1.26643C48.8759 0.927011 48.2591 0.675187 47.5402 0.518252C46.8212 0.361318 45.8504 0.317522 45.8504 0.317522C45.4562 0.299274 44.8139 0.284676 44.4197 0.284676H37.219C36.8248 0.284676 36.5037 0.605843 36.5037 1V14.146C36.5037 14.5401 36.8248 14.7883 37.219 14.7883H38.9234C39.3175 14.7883 39.6387 14.5401 39.6387 14.146C39.6387 14.146 39.6387 8.91606 39.6424 8.91606C39.646 8.91606 39.646 8.91606 39.646 8.91241C39.646 8.90511 42.8796 8.90146 42.8796 8.90146C43.2701 8.90146 43.7774 9.16424 44.0037 9.48905L47.3577 14.208C47.6715 14.6277 47.9672 14.792 48.3613 14.792H50.5876C50.9818 14.792 51.0438 14.4197 50.9051 14.2263C50.7737 14.0328 47.4234 9.26278 47.4234 9.26278ZM47.1132 6.16059C46.8577 6.35037 46.511 6.4927 46.0694 6.59124C45.6241 6.69343 45.1278 6.71533 45.1278 6.71533C44.7372 6.73358 44.0949 6.74453 43.7007 6.74453H40.3613C39.9672 6.74453 39.646 6.42336 39.646 6.0292V3.36497C39.646 2.97446 39.9672 2.65329 40.3613 2.65329H43.7007C44.0949 2.65329 44.7372 2.66789 45.1278 2.68249C45.1278 2.68249 45.6241 2.70073 46.0694 2.80292C46.511 2.90511 46.8577 3.04745 47.1132 3.22993C47.3723 3.41606 47.5548 3.63139 47.6679 3.87957C47.7774 4.13139 47.8321 4.40146 47.8321 4.69708C47.8321 4.9927 47.7737 5.26278 47.6679 5.51095C47.5548 5.76278 47.3723 5.97811 47.1132 6.16059Z" fill="currentColor"/>
<path d="M97.7774 0.281024C97.3832 0.281024 97.0657 0.540148 97.0657 0.91971L97.0693 9.32847C97.0693 9.72263 96.8467 9.81022 96.573 9.5292L88.1533 0.795622C87.8796 0.514601 87.4781 0.281024 86.9416 0.281024H85.3577C84.8613 0.281024 84.6423 0.547447 84.6423 0.813871V14.2591C84.6423 14.5255 84.8978 14.781 85.292 14.781H86.8759C87.2701 14.781 87.5438 14.5657 87.5438 14.2044C87.5438 14.0219 87.5511 5.34672 87.5511 5.34672C87.5511 4.95256 87.7737 4.86497 88.0438 5.14599L96.8212 14.2737C97.0985 14.5511 97.438 14.781 98.0401 14.781H99.2336C99.6277 14.781 99.9489 14.4599 99.9489 14.0657V0.992703C99.9489 0.598542 99.6277 0.277374 99.2336 0.277374H97.7701L97.7774 0.281024Z" fill="currentColor"/>
<path d="M63.4489 8.48176C63.2591 8.82482 62.9453 8.82482 62.7555 8.48176L58.6423 0.923362C58.4671 0.572997 58.1095 0.284676 57.6095 0.284676H55.3759C54.9817 0.284676 54.6606 0.605843 54.6606 1V14.1277C54.6606 14.5219 54.9197 14.7883 55.3759 14.7883H56.7628C57.1569 14.7883 57.4416 14.5402 57.4416 14.1606C57.4416 13.9781 57.4453 4.61314 57.4635 4.61314C57.4817 4.61314 62.6022 14.1569 62.6022 14.1569C62.7883 14.5037 63.2409 14.5037 63.4307 14.1606C63.4307 14.1606 68.5949 4.63869 68.6095 4.63869C68.6241 4.63869 68.6204 13.8869 68.6204 14.1606C68.6204 14.5402 68.9234 14.7883 69.3175 14.7883H70.9161C71.3102 14.7883 71.6314 14.5912 71.6314 14.073V1C71.6314 0.605843 71.3102 0.284676 70.9161 0.284676H68.7774C68.2299 0.284676 67.9015 0.562048 67.708 0.905114L63.4489 8.48176Z" fill="currentColor"/>
<path d="M0 7.5219C0 14.6058 7.24453 14.9635 8.69708 14.9635C13.5037 14.9635 15.5365 13.6642 15.6204 13.6095C15.9234 13.438 16.2883 13.0949 16.2883 12.4526V7.56569C16.2883 7.11679 15.9197 6.74818 15.4708 6.74818H9.43066C8.9781 6.74818 8.68248 7.11679 8.68248 7.56569V8.07299C8.68248 8.52555 8.9781 8.89416 9.43066 8.89416H12.9234C13.2591 8.89416 13.5328 9.16788 13.5328 9.50365C13.5328 9.50365 13.5292 11.646 13.5292 11.7847C12.8394 12.0657 9.69343 12.9854 7.16788 12.3832C3.5073 11.5036 3.22263 8.4781 3.22263 7.57299C3.22263 6.81387 3.44891 3.0073 7.94891 2.62044C11.5912 2.31022 13.9891 3.77737 14.0146 3.79197C14.4416 4.0146 14.8869 3.85766 15.1241 3.40146C15.1241 3.39781 15.5766 2.48175 15.5766 2.48175C15.7664 2.10584 15.7007 1.71168 15.2409 1.40146C15.2117 1.38321 12.6606 0 8.69708 0C0.244526 0 0 6.75183 0 7.5219Z" fill="currentColor"/>
</g>
<defs>
<clipPath id="clip0">
<rect width="100" height="14.9635" fill="currentColor"/>
</clipPath>
</defs>
</svg>
