<?xml version="1.0" encoding="utf-8"?>
<svg version="1.1"
	 id="Layer_1" sodipodi:docname="client-amex.svg" inkscape:version="0.48.5 r10040" xmlns:dc="http://purl.org/dc/elements/1.1/" xmlns:cc="http://creativecommons.org/ns#" xmlns:rdf="http://www.w3.org/1999/02/22-rdf-syntax-ns#" xmlns:svg="http://www.w3.org/2000/svg" xmlns:sodipodi="http://sodipodi.sourceforge.net/DTD/sodipodi-0.dtd" xmlns:inkscape="http://www.inkscape.org/namespaces/inkscape"
	 xmlns="http://www.w3.org/2000/svg" xmlns:xlink="http://www.w3.org/1999/xlink" x="0px" y="0px" width="55.96px" height="60px"
	 viewBox="0 15 55.96 60" enable-background="new 0 15 55.96 60" xml:space="preserve">
<sodipodi:namedview  id="namedview39" inkscape:window-height="1017" inkscape:window-width="1920" inkscape:pageshadow="2" inkscape:pageopacity="0" bordercolor="#666666" showgrid="false" pagecolor="#ffffff" guidetolerance="10" inkscape:cy="8.6570948" gridtolerance="10" inkscape:cx="56.436415" objecttolerance="10" inkscape:zoom="4" borderopacity="1" inkscape:window-maximized="1" inkscape:current-layer="Layer_1" inkscape:window-y="-8" inkscape:window-x="1592">
	</sodipodi:namedview>
<g id="g3" transform="matrix(0.88441102,0,0,0.88441102,0,7.7368232)">
	<g id="g5">
		<path id="path7" inkscape:connector-curvature="0" fill="currentColor" d="M6.355,14.323v22.891l2.121-4.796h4.056l0.569,1.359v-1.349
			h4.963l1.092,2.288l1.066-2.298h15.666c0,0,0.823-0.01,1.361,0.37l-0.003-0.37h3.945v0.52c0,0,0.709-0.52,1.758-0.52
			c1.049,0,6.965,0,6.965,0l0.612,1.379v-1.379h4.463l0.808,1.379v-1.379h4.267v9.511h-4.384l-1.029-1.657v1.647h-5.446
			l-0.767-1.698h-1.068l-0.718,1.698h-3.297c0,0-1.23-0.015-2.151-0.674c0,0.345,0,0.674,0,0.674h-6.563c0,0,0-1.896,0-2.218
			c0-0.322-0.247-0.299-0.247-0.299h-0.241v2.518H20.997V41.2l-0.345,0.719H17.67l-0.375-0.772v0.772H11.72l-0.659-1.559H9.944
			l-0.697,1.559H6.355v28.024h56.602V52.942c0,0-0.509,0.577-1.566,0.577h-5.117v-0.286c0,0-0.488,0.286-1.23,0.286
			c-0.742,0-13.597,0-13.597,0s0-2.088,0-2.315c0-0.229-0.099-0.271-0.301-0.271H40.96v2.586h-4.249v-2.571
			c0,0-0.473,0.255-1.259,0.255c-0.788,0-1.53,0-1.53,0v2.315h-5.237l-1.191-1.455l-1.274,1.455h-8.497v-9.54h8.625l1.244,1.409
			l1.274-1.409h6.631c0,0,0.623,0.015,1.215,0.331V43.98c0,0,5.154,0,5.905,0c0.749,0,1.378,0.375,1.378,0.375V43.98h7.59v0.346
			c0,0,0.54-0.346,1.265-0.346c0.728,0,4.946,0,4.946,0v0.346c0,0,0.622-0.346,1.281-0.346c0.659,0,3.881,0,3.881,0V14.323H6.355z"
			/>
	</g>
	<g id="g9">
		<path id="path11" inkscape:connector-curvature="0" fill="currentColor" d="M2.361,65.235c-1.306,0-2.36,1.055-2.36,2.349
			c0,1.306,1.054,2.36,2.36,2.36c1.301,0,2.349-1.053,2.349-2.36C4.71,66.29,3.662,65.235,2.361,65.235z M2.361,69.661
			c-1.146,0-2.07-0.925-2.07-2.077c0-1.141,0.924-2.065,2.07-2.065c1.14,0,2.065,0.924,2.065,2.065
			C4.426,68.736,3.502,69.661,2.361,69.661z"/>
		<path id="path13" inkscape:connector-curvature="0" fill="currentColor" d="M3.571,66.967c0-0.221-0.099-0.455-0.296-0.566
			c-0.197-0.117-0.419-0.129-0.641-0.129H1.487v2.632h0.32v-1.215h0.592l0.753,1.215h0.381l-0.795-1.215
			C3.207,67.676,3.571,67.486,3.571,66.967z M2.301,67.433H1.808v-0.931H2.56c0.327,0,0.684,0.05,0.684,0.456
			C3.244,67.494,2.67,67.433,2.301,67.433z"/>
	</g>
	<g id="g15">
		<polygon id="polygon17" fill="currentColor" points="46.857,46.861 46.857,48.127 50.506,48.127 50.506,49.406 46.857,49.406 
			46.857,50.738 50.612,50.738 50.612,52.153 45.202,52.153 45.202,45.411 50.612,45.411 50.612,46.861 		"/>
		<path id="path19" inkscape:connector-curvature="0" fill="currentColor" d="M61.068,48.039c2.035,0.104,2.205,1.12,2.205,2.204
			c0,1.263-1.039,1.941-2.122,1.941h-3.476v-1.445h2.707c0.459,0,1.144,0,1.144-0.648c0-0.308-0.119-0.504-0.608-0.557
			c-0.218-0.031-1.024-0.075-1.144-0.077c-1.838-0.049-2.266-0.963-2.266-2.076c0-1.264,0.888-1.956,1.972-1.956h3.477v1.445h-2.544
			c-0.579,0.007-1.204-0.068-1.204,0.585c0,0.415,0.307,0.497,0.698,0.536C60.044,47.992,60.948,48.039,61.068,48.039z"/>
		<path id="path21" inkscape:connector-curvature="0" fill="currentColor" d="M54.836,48.039c2.035,0.104,2.205,1.12,2.205,2.204
			c0,1.263-1.039,1.941-2.122,1.941h-3.476v-1.445h2.707c0.459,0,1.146,0,1.146-0.648c0-0.308-0.121-0.504-0.61-0.557
			c-0.219-0.031-1.025-0.075-1.145-0.077c-1.838-0.049-2.265-0.963-2.265-2.076c0-1.264,0.888-1.956,1.971-1.956h3.477v1.445h-2.543
			c-0.58,0.007-1.205-0.068-1.205,0.585c0,0.415,0.307,0.497,0.7,0.536C53.812,47.992,54.716,48.039,54.836,48.039z"/>
		<path id="path23" inkscape:connector-curvature="0" fill="currentColor" d="M35.207,45.425h-5.81l-1.896,2.092l-1.836-2.107H19.14
			v6.742h6.314l1.986-2.226l1.941,2.242h3.176V49.88h2.228c0.858,0,2.423-0.029,2.423-2.394
			C37.21,45.801,36.019,45.425,35.207,45.425z M24.588,50.738h-3.816v-1.333h3.65v-1.28h-3.65v-1.264l4.026,0.008l1.611,1.836
			L24.588,50.738z M30.917,51.52l-2.378-2.815l2.378-2.634V51.52z M34.649,48.49h-2.062v-1.62h2.069c0.692,0,0.91,0.445,0.91,0.775
			C35.567,48.099,35.326,48.49,34.649,48.49z"/>
		<path id="path25" inkscape:connector-curvature="0" fill="currentColor" d="M43.203,49.099c0.903-0.453,1.145-1.055,1.145-1.868
			c0-1.443-1.174-1.805-1.986-1.805h-4.306v6.743h1.656V49.79h2.166c0.573,0,0.799,0.572,0.813,1.144l0.045,1.234h1.611
			l-0.062-1.385C44.288,49.699,43.987,49.188,43.203,49.099z M41.774,48.399h-2.062V46.87h2.069c0.692,0,0.91,0.445,0.91,0.775
			C42.692,48.098,42.451,48.399,41.774,48.399z"/>
	</g>
	<g id="g27">
		<rect id="rect29" x="38.423" y="33.77" fill="currentColor" width="1.655" height="6.75"/>
		<polygon id="polygon31" fill="currentColor" points="26.527,35.23 26.527,36.494 30.176,36.494 30.176,37.774 26.527,37.774 
			26.527,39.106 30.281,39.106 30.281,40.52 24.87,40.52 24.87,33.777 30.281,33.777 30.281,35.23 		"/>
		<path id="path33" inkscape:connector-curvature="0" fill="currentColor" d="M36.41,37.449c0.905-0.451,1.146-1.053,1.146-1.866
			c0-1.445-1.175-1.806-1.988-1.806h-4.305v6.743h1.656v-2.378h2.168c0.572,0,0.797,0.572,0.813,1.144l0.046,1.235h1.61l-0.06-1.385
			C37.497,38.051,37.194,37.54,36.41,37.449z M34.981,36.752H32.92v-1.528h2.07c0.691,0,0.91,0.444,0.91,0.775
			C35.9,36.451,35.659,36.752,34.981,36.752z"/>
		<path id="path35" inkscape:connector-curvature="0" fill="currentColor" d="M21.052,33.777L19.021,38.3l-2.025-4.523H14.4v6.495
			l-2.89-6.495H9.319l-2.95,6.743h1.746l0.647-1.505h3.304l0.655,1.505h3.333v-5.005l2.212,5.005h1.505l2.265-4.922v4.922h1.656
			v-6.743H21.052z M9.387,37.56l0.988-2.357l1.029,2.357H9.387z"/>
		<path id="path37" inkscape:connector-curvature="0" fill="currentColor" d="M57.163,33.774v4.669l-2.791-4.669h-2.447v6.332
			l-2.822-6.329h-2.191l-2.28,5.222c0,0-0.964,0-1.061-0.023c-0.399-0.083-1.022-0.364-1.029-1.553v-0.489
			c0-1.58,0.859-1.696,1.957-1.696h1.024v-1.464H43.36c-0.753,0-2.389,0.575-2.446,3.344c-0.036,1.866,0.774,3.405,2.611,3.405
			h2.182l0.647-1.506h3.304l0.656,1.506h3.266v-4.937l2.979,4.937h2.257v-6.75h-1.654V33.774z M46.994,37.563l0.986-2.357
			l1.039,2.357H46.994z"/>
	</g>
</g>
</svg>
