<?xml version="1.0" encoding="utf-8"?>
<!-- Generator: Adobe Illustrator 16.0.2, SVG Export Plug-In . SVG Version: 6.00 Build 0)  -->
<!DOCTYPE svg PUBLIC "-//W3C//DTD SVG 1.1//EN" "http://www.w3.org/Graphics/SVG/1.1/DTD/svg11.dtd">
<svg version="1.1"
	 id="Layer_1" sodipodi:docname="client-airforce.svg" inkscape:version="0.48.5 r10040" xmlns:dc="http://purl.org/dc/elements/1.1/" xmlns:cc="http://creativecommons.org/ns#" xmlns:rdf="http://www.w3.org/1999/02/22-rdf-syntax-ns#" xmlns:svg="http://www.w3.org/2000/svg" xmlns:sodipodi="http://sodipodi.sourceforge.net/DTD/sodipodi-0.dtd" xmlns:inkscape="http://www.inkscape.org/namespaces/inkscape"
	 xmlns="http://www.w3.org/2000/svg" xmlns:xlink="http://www.w3.org/1999/xlink" x="0px" y="0px" width="71.097px" height="60px"
	 viewBox="1.781 15 71.097 60" enable-background="new 1.781 15 71.097 60" xml:space="preserve">
<sodipodi:namedview  id="namedview53" inkscape:window-height="1017" inkscape:window-width="1920" inkscape:pageshadow="2" inkscape:pageopacity="0" bordercolor="#666666" showgrid="false" pagecolor="#ffffff" guidetolerance="10" inkscape:cy="39.230697" gridtolerance="10" inkscape:cx="85.555983" objecttolerance="10" inkscape:zoom="5.6568543" borderopacity="1" inkscape:window-maximized="1" inkscape:current-layer="Layer_1" inkscape:window-y="-8" inkscape:window-x="1592">
	</sodipodi:namedview>
<g id="g3" transform="matrix(1.2728731,0,0,1.2728731,0,-8.766258)">
	<g id="g5">
		<polygon id="polygon7" fill="currentColor" points="20.85,47.245 25.16,50.378 26.512,46.217 24.389,44.674 		"/>
		<polygon id="polygon9" fill="currentColor" points="29.338,53.413 32.875,50.841 29.338,48.268 25.797,50.841 		"/>
		<polygon id="polygon11" fill="currentColor" points="14.606,33.463 17.636,39.768 21.941,42.895 27.585,42.895 		"/>
		<polygon id="polygon13" fill="currentColor" points="10.811,25.561 13.84,31.867 27.865,42.055 28.944,38.736 		"/>
		<polygon id="polygon15" fill="currentColor" points="11.243,24.836 17.813,29.61 13.381,20.388 		"/>
		<polygon id="polygon17" fill="currentColor" points="33.515,50.378 37.823,47.245 34.283,44.674 32.161,46.217 		"/>
		<polygon id="polygon19" fill="currentColor" points="41.037,39.768 44.066,33.463 31.088,42.895 36.732,42.895 		"/>
		<polygon id="polygon21" fill="currentColor" points="30.809,42.055 44.833,31.867 47.864,25.561 29.73,38.736 		"/>
		<polygon id="polygon23" fill="currentColor" points="40.858,29.61 47.43,24.836 45.293,20.388 		"/>
		
			<circle id="circle25" sodipodi:cx="29.337999" sodipodi:rx="2.066" sodipodi:cy="48.292" sodipodi:ry="2.066" fill="currentColor" cx="29.338" cy="45.295" r="1.967">
		</circle>
	</g>
	<g id="g27">
		<path id="path29" inkscape:connector-curvature="0" fill="currentColor" d="M1.399,59.803h1.423v2.265c0,0.249,0.023,0.428,0.113,0.582
			c0.181,0.31,0.541,0.394,0.83,0.394c0.372,0,0.587-0.128,0.684-0.219c0.243-0.226,0.249-0.588,0.249-0.779v-2.243h1.423v2.09
			c0,0.469-0.012,0.96-0.232,1.299c-0.435,0.678-1.485,0.74-2.118,0.74c-0.886,0-1.39-0.124-1.688-0.305
			c-0.622-0.305-0.684-0.938-0.684-1.259V59.803z"/>
		<path id="path31" inkscape:connector-curvature="0" fill="currentColor" d="M6.501,62.751H7.8v1.04H6.501V62.751z"/>
		<path id="path33" inkscape:connector-curvature="0" fill="currentColor" d="M9.975,60.83c0,0.055,0.017,0.108,0.045,0.14
			c0.096,0.124,0.498,0.215,0.717,0.26c0.271,0.063,0.547,0.113,0.819,0.175c0.175,0.034,0.345,0.074,0.514,0.14
			c0.531,0.199,0.7,0.594,0.7,0.954c0,0.266-0.091,0.509-0.209,0.684c-0.333,0.503-1.005,0.723-2.079,0.723
			c-0.401,0-1.197-0.035-1.666-0.451c-0.345-0.305-0.395-0.673-0.418-0.854l1.406-0.041c0.05,0.26,0.316,0.457,0.881,0.457
			c0.147,0,0.356-0.016,0.497-0.097c0.096-0.055,0.198-0.17,0.198-0.304c0-0.187-0.152-0.265-0.265-0.305
			c-0.175-0.055-1.073-0.213-1.271-0.26c-0.159-0.034-0.305-0.073-0.458-0.123c-0.153-0.057-0.79-0.283-0.79-1.011
			c0-0.299,0.124-0.577,0.322-0.78c0.446-0.462,1.248-0.509,1.688-0.509c0.485,0,0.965,0.069,1.214,0.153
			c0.746,0.237,0.842,0.796,0.881,1.011l-1.401,0.081c-0.035-0.13-0.102-0.367-0.701-0.367C10.416,60.509,9.975,60.537,9.975,60.83z
			"/>
		<path id="path35" inkscape:connector-curvature="0" fill="currentColor" d="M13.235,62.751h1.299v1.04h-1.299V62.751z"/>
		<path id="path37" inkscape:connector-curvature="0" fill="currentColor" d="M19.719,62.26h-0.926l0.457-1.349L19.719,62.26z
			 M16.715,63.791h1.565l0.214-0.651h1.524l0.214,0.651h1.554l-1.729-3.988h-1.626L16.715,63.791z"/>
		<path id="path39" inkscape:connector-curvature="0" fill="currentColor" d="M23.745,59.803v3.986h-1.429v-3.986H23.745z"/>
		<path id="path41" inkscape:connector-curvature="0" fill="currentColor" d="M26.235,60.706h1.187c0.107,0,0.254,0.012,0.367,0.114
			c0.073,0.067,0.101,0.163,0.101,0.254c0,0.355-0.361,0.361-0.582,0.361h-1.074V60.706z M24.806,63.79h1.429v-1.451h0.763
			l0.818,1.452h1.582l-1-1.593c0.17-0.045,0.441-0.103,0.666-0.373c0.164-0.197,0.254-0.475,0.254-0.757
			c0-0.4-0.18-0.79-0.468-1.011c-0.333-0.242-0.763-0.248-1.112-0.254h-2.933v3.988V63.79z"/>
		<path id="path43" inkscape:connector-curvature="0" fill="currentColor" d="M31.528,59.803h3.908v0.898h-2.478v0.763h2.276v0.892
			h-2.276v1.434h-1.43V59.803z"/>
		<path id="path45" inkscape:connector-curvature="0" fill="currentColor" d="M38.637,60.543c0.977,0.012,1.17,0.814,1.17,1.249
			c0,0.4-0.153,0.921-0.594,1.14c-0.175,0.091-0.378,0.114-0.576,0.114c-0.863,0-1.197-0.638-1.197-1.254
			C37.44,61.244,37.739,60.531,38.637,60.543z M38.553,59.656c-0.707,0.012-1.655,0.141-2.214,0.932
			c-0.254,0.361-0.367,0.802-0.367,1.249c0,0.457,0.107,0.842,0.377,1.203c0.295,0.4,0.865,0.892,2.253,0.892
			c0.723,0,1.366-0.101,1.909-0.53c0.191-0.147,0.351-0.328,0.474-0.538c0.198-0.327,0.288-0.711,0.288-1.084
			c0-0.684-0.321-1.52-1.237-1.892C39.581,59.701,39.049,59.651,38.553,59.656z"/>
		<path id="path47" inkscape:connector-curvature="0" fill="currentColor" d="M43.501,60.706h1.186c0.107,0,0.255,0.012,0.366,0.114
			c0.074,0.067,0.103,0.163,0.103,0.254c0,0.355-0.362,0.361-0.582,0.361h-1.073V60.706z M42.071,63.79h1.429v-1.451h0.763
			l0.819,1.452h1.582l-1-1.593c0.17-0.045,0.441-0.103,0.667-0.373c0.163-0.197,0.254-0.475,0.254-0.757
			c0-0.4-0.181-0.79-0.468-1.011c-0.333-0.242-0.763-0.248-1.112-0.254h-2.932v3.988L42.071,63.79z"/>
		<path id="path49" inkscape:connector-curvature="0" fill="currentColor" d="M48.74,61.796c0,0.605,0.355,1.232,1.175,1.232
			c0.311,0,0.599-0.097,0.808-0.266c0.186-0.152,0.242-0.282,0.287-0.4l1.361,0.14c-0.046,0.147-0.096,0.294-0.226,0.498
			c-0.468,0.722-1.383,0.927-2.259,0.927c-0.39,0-0.774-0.035-1.141-0.148c-0.819-0.254-1.496-0.881-1.496-1.976
			c0-0.773,0.407-2.169,2.677-2.169c1.937,0,2.242,0.882,2.372,1.26l-1.322,0.236c-0.056-0.112-0.124-0.265-0.334-0.4
			c-0.214-0.137-0.479-0.182-0.682-0.182C49.317,60.548,48.74,60.949,48.74,61.796L48.74,61.796z"/>
		<path id="path51" inkscape:connector-curvature="0" fill="currentColor" d="M57.198,59.803v0.898h-2.773v0.65h2.565v0.903H54.42v0.633
			h2.835v0.903h-4.258v-3.986H57.198z"/>
	</g>
</g>
</svg>
