<?xml version="1.0" encoding="utf-8"?><svg xmlns="http://www.w3.org/2000/svg" viewBox="0 0 176 144" width="176" height="144" ><circle cx="81.76" cy="72" r="72"/><g fill="#fff"><circle cx="77.49" cy="13.83" r=".81"/><circle cx="85.83" cy="14.95" r=".81"/><circle cx="96.71" cy="29.49" r=".81"/><circle cx="37.12" cy="104.85" r=".81"/><circle cx="39.15" cy="111.36" r=".81"/><circle cx="29.19" cy="105.86" r=".61"/><circle cx="61.93" cy="118.47" r=".61"/><circle cx="113.49" cy="107.8" r=".61"/><circle cx="128.44" cy="91.53" r=".61"/><circle cx="55.12" cy="34.27" r=".61"/><circle cx="71.59" cy="22.17" r=".61"/><circle cx="69.76" cy="20.95" r=".61"/><circle cx="68.14" cy="19.83" r=".61"/><circle cx="57.66" cy="37.42" r=".61"/><circle cx="81.97" cy="5.9" r=".61"/><circle cx="85.93" cy="23.39" r=".61"/><circle cx="79.63" cy="19.93" r=".61"/><circle cx="68.85" cy="24.61" r=".61"/><circle cx="116.34" cy="123.76" r=".61"/><circle cx="36" cy="108.92" r=".61"/><circle cx="78.1" cy="116.75" r=".61"/><circle cx="48.61" cy="108.51" r=".61"/><circle cx="53.8" cy="117.05" r=".61"/><circle cx="92.34" cy="111.66" r=".61"/><circle cx="113.59" cy="99.66" r=".61"/><circle cx="129.66" cy="106.98" r=".61"/><circle cx="135.15" cy="110.54" r=".61"/><circle cx="136.07" cy="100.88" r=".61"/><circle cx="56.03" cy="87.36" r=".61"/><circle cx="56.24" cy="101.29" r=".81"/><circle cx="61.02" cy="111.46" r=".81"/><circle cx="119.08" cy="100.78" r=".81"/><circle cx="139.93" cy="99.66" r=".81"/><circle cx="129.56" cy="95.19" r=".81"/><circle cx="119.08" cy="95.69" r=".81"/><path d="M97.32 13.32l2.03-.2-2.03-.1c-.1-.41-.41-.71-.81-.71l-.2-2.03-.1 2.03c-.41.1-.61.41-.71.71l-2.03.2 2.03.1c.1.31.31.61.71.71l.2 2.03.1-2.03c.41-.1.71-.3.81-.71zM63.46 35.69l2.03-.2-2.03-.1c-.1-.41-.41-.71-.81-.71l-.2-2.03-.1 2.03c-.41.1-.61.41-.71.71l-2.03.2 2.03.1c.1.31.31.61.71.71l.2 2.03.1-2.03c.4-.09.71-.4.81-.71zm75.05 59.09l2.03-.2-2.03-.1c-.1-.41-.41-.71-.81-.71l-.2-2.03-.1 2.03c-.41.1-.61.41-.71.71l-2.03.2 2.03.1c.1.31.31.61.71.71l.2 2.03.1-2.03c.4-.1.71-.41.81-.71zm-81.87 30.81l2.03-.2-2.03-.1c-.1-.41-.41-.71-.81-.71l-.2-2.03-.1 2.03c-.41.1-.61.41-.71.71l-2.03.2 2.03.1c.1.31.31.61.71.71l.2 2.03.1-2.03c.51.01.81-.3.81-.71zm75.46-15.05l2.03-.2-2.03-.1c-.1-.41-.41-.71-.81-.71l-.2-2.03-.1 2.03c-.41.1-.61.41-.71.71l-2.03.2 2.03.1c.1.31.31.61.71.71l.2 2.03.1-2.03c.4 0 .71-.3.81-.71z"/></g><path fill="#717171" d="M98.85 54.71c-8.34 3.25-16.58 6.2-23.39 8.34C61.42 67.42 23.08 79.32 0 94.27l1.93.71c14.14-7.93 23.29-10.47 32.03-13.22 9.56-3.05 40.58-10.27 54.51-14.24 4.78-1.32 10.27-3.05 16.17-5.19-1.32-1.93-2.85-3.86-4.37-5.69-.44-.66-.92-1.31-1.42-1.93zm10.27 14.14L104.24 72c-6.92 3.97-40.47 26.95-48.1 32.14-7.63 5.29-28.88 25.32-35.08 31.12l-.2 2.34C41 119.5 47.3 115.02 55.33 109.02c9.76-7.53 30.31-21.46 37.22-25.93l18-11.8c-.1-.1-.2-.31-.31-.41-.31-.71-.69-1.39-1.12-2.03zm31.42-33.26c-9.76 5.8-25.22 12.71-40.27 18.61.41.41.71.92 1.12 1.32l4.78 6.41c11.8-4.37 24.71-10.17 34.98-17.19-4.88 4.68-21.05 16.68-30.92 23.39.51.81 1.02 1.63 1.42 2.44 14.95-9.97 25.02-17.29 30.81-22.27 8.03-6.81 26.44-21.97 33.46-42.31-12.29 15.67-26.73 24.52-35.38 29.6z"/><g fill="#fff"><path d="M72.51 89.8l-5.39-6.71c-2.24-2.75-4.27-5.59-6.1-8.34-.61.1-1.22.31-1.83.41 2.24 3.56 4.78 7.02 7.53 10.47 2.03 2.54 3.76 4.58 4.78 5.8.2.31.61.81 1.02 1.53.61-.41 1.12-.81 1.73-1.22-.62-.62-1.23-1.23-1.74-1.94zm11.59 10.57c-1.32-1.22-4.47-3.25-7.73-6.41-.71.51-1.42 1.02-2.24 1.53 2.14 2.95 4.98 6.71 7.32 7.73 3.36 1.63 4.28-1.32 2.65-2.85zm17.29-44.84c-18.81-23.69-41.8-36.71-51.76-28.88-7.73 6.1-4.58 24 6.1 42.71.53-.22 1.07-.39 1.63-.51-10.68-18.2-13.63-35.29-6.41-40.98 9.15-7.22 31.12 5.8 49.42 28.78 3.76 4.78 7.12 9.56 9.97 14.24 10.78 17.8 14.14 33.97 6.61 40.58-2.24 2.03-9.25 2.85-18.41-1.32-.1.2.1.61.2.71 7.83 3.15 15.46 4.37 19.22 1.32 9.26-7.33 2.24-32.96-16.57-56.65h0zm-80.75 2.74h12.1l10.07 17.19V62.03c0-1.53-1.93-3.46-2.54-3.76h8.34c-.51.1-2.14 2.14-2.14 3.76v19.73c0 1.22 1.73 2.85 2.54 3.56H37.42L27.15 68.03v13.53c0 1.32 1.32 2.64 2.64 3.76h-8.85c1.22-.51 2.44-2.24 2.54-3.56s0-18.71 0-19.42c.01-1.63-1.51-2.95-2.84-4.07z"/><path d="M130.88 85.32h16.07c-.92-.2-1.93-1.22-2.44-2.64l-9.05-24.31h-6.1l-5.59 3.97v.1c-.31 1.63-5.08 18.92-5.29 19.73-.41 1.22-2.44 2.54-3.36 3.15h8.64c-.81-1.02-1.53-1.93-1.42-2.95l.61-3.25h8.95c.41 1.12.71 2.03.81 2.95.31 1.12-.81 2.34-1.83 3.25h0zm-7.02-9.66l3.05-9.86 3.97 9.86h-7.02zm-1.32-16.37c.41-.31.92-.61 1.32-1.02h-2.34c.21.31.62.61 1.02 1.02zM61.22 82.37l.61-3.25h8.95c.41 1.12.71 2.03.81 2.95.2 1.12-.92 2.34-1.93 3.15H83.8l.92-.61c-.51-.51-1.02-1.22-1.42-2.03l-9.05-24.31H60.31c.71.61 2.64 2.24 2.34 4.07-.31 1.63-5.08 18.92-5.29 19.73-.41 1.22-2.44 2.54-3.36 3.15h8.64c-.91-.81-1.62-1.73-1.42-2.85zm4.37-16.47l3.97 9.86h-7.02l3.05-9.86zm44.34 5.79l-8.34 5.49c1.32.61 2.34 1.42 2.44 2.44.2 1.93-3.76 2.85-7.22 2.44-.71-.1-1.42-.31-2.03-.51-.71.51-1.42.92-2.24 1.42l-2.75 1.83v2.75c.71-1.32 2.24-2.64 3.46-2.64.51 0 2.24 1.63 9.56 1.22 3.56-.2 10.37-3.97 10.27-8.34 0-2.54-1.42-4.57-3.15-6.1h0zM89.8 78.41v2.85c.61-.41 1.32-.81 1.93-1.32-1.02-.62-1.73-1.23-1.93-1.53zm17.59-8.44c-.71-.41-1.32-.71-2.03-1.12-3.46-1.63-7.02-1.93-7.83-4.07-.51-1.53 1.02-2.95 4.58-2.95 3.66.1 7.02 2.24 7.93 3.05v-6.92c-.31.31-1.42 1.63-2.54 1.42-2.03-.41-5.59-1.02-9.66-1.02-4.58 0-8.64 3.56-8.75 8.14-.2 6.31 4.88 8.03 7.73 9.05.33.12.67.22 1.02.31 2.75-1.73 4.88-3.15 6.2-3.86 1.01-.51 2.13-1.22 3.35-2.03z"/></g></svg>