<svg width="109" height="32" viewBox="0 0 109 32" fill="none" xmlns="http://www.w3.org/2000/svg">
<path d="M13.7915 20.1164L12.8163 17.838L5.72548 17.838L4.77056 20.1164H0.971191L8.71214 2.30007L9.89056 2.30007L17.6112 20.1164H13.7915ZM11.5769 14.9028L9.26071 8.99145L6.94453 14.9028H11.5769ZM18.5052 13.5482C18.4645 11.7214 19.196 9.95615 20.5166 8.68356C21.8169 7.36992 23.6048 6.65152 25.4537 6.69257C28.0137 6.69257 29.8829 7.78043 31.102 9.93563L28.6436 11.865C27.7699 10.5925 26.7337 9.95615 25.5147 9.95615C24.6004 9.93563 23.7064 10.3051 23.0766 10.9824C22.4264 11.6803 22.081 12.5834 22.1217 13.5482C22.081 14.5129 22.4264 15.4365 23.0766 16.1344C23.7064 16.8117 24.6004 17.1812 25.5147 17.1607C26.7134 17.1607 27.7699 16.5244 28.6436 15.2723L31.102 17.1812C30.5534 18.1664 29.761 19.008 28.7858 19.5827C27.7699 20.1574 26.6321 20.4653 25.474 20.4448C23.6252 20.5064 21.8372 19.7674 20.5369 18.4333C19.196 17.1812 18.4442 15.3955 18.5052 13.5482ZM33.601 14.3487V7.00045L37.1363 7.00045L37.1363 14.636C37.0753 15.9497 38.0709 17.0786 39.3712 17.1607H39.615C40.2652 17.1812 40.895 16.9349 41.342 16.4628C41.8093 15.9702 42.0531 15.3134 42.0328 14.6565L42.0328 7.00045L45.568 7.00045V14.3487C45.568 16.1549 44.9991 17.6122 43.8817 18.7412C42.7439 19.8701 41.3217 20.4448 39.615 20.4448C37.8677 20.4448 36.4252 19.8906 35.3077 18.7617C34.1699 17.6328 33.601 16.1549 33.601 14.3487ZM60.8874 11.9882L60.8874 20.1164H57.3725L57.3725 12.4603C57.3928 11.7829 57.1693 11.1261 56.702 10.613C56.2347 10.1409 55.6048 9.89458 54.9547 9.9151C54.2842 9.89458 53.6544 10.1409 53.1871 10.613C52.7198 11.1056 52.4556 11.7624 52.4963 12.4603L52.4963 20.1164L48.961 20.1164L48.961 6.97993L52.2321 6.97993V8.17042C53.2074 7.18518 54.4874 6.69257 56.0315 6.69257C57.535 6.69257 58.7337 7.16466 59.6074 8.12937C60.481 9.09408 60.8874 10.3667 60.8874 11.9882ZM76.2271 14.7592L67.1248 14.7592C67.3057 15.5379 67.7606 16.2236 68.4048 16.6886C69.116 17.1607 69.9287 17.3865 70.782 17.3659C72.1026 17.3454 73.3826 16.8938 74.3985 16.0318L75.8614 18.4743C74.4205 19.745 72.5727 20.445 70.6601 20.4448C68.7706 20.5269 66.942 19.8085 65.5807 18.4743C64.2195 17.2223 63.488 15.4365 63.549 13.5892C63.488 11.7624 64.1991 9.97668 65.5198 8.70409C66.7794 7.36992 68.5267 6.65152 70.3553 6.71309C72.1433 6.71309 73.6061 7.28781 74.7439 8.45778C75.8817 9.60722 76.5115 11.1877 76.4709 12.8092C76.4712 13.467 76.3893 14.1222 76.2271 14.7592ZM67.1248 12.255L73.0372 12.255C73.0372 11.5161 72.7325 10.8388 72.2042 10.3461C71.6556 9.85353 70.9445 9.58669 70.2131 9.60722C69.502 9.58669 68.7909 9.85353 68.2423 10.3256C67.6937 10.8182 67.2874 11.4956 67.1248 12.255ZM88.9458 2.23849C88.9255 1.64325 89.1693 1.06853 89.596 0.637487C90.0226 0.226973 90.5915 -0.0193356 91.201 0.00119008C91.8106 -0.0193356 92.3794 0.226973 92.8061 0.637487C93.2531 1.048 93.4969 1.62272 93.4766 2.23849C93.4969 2.83374 93.2531 3.40846 92.8061 3.79844C92.3794 4.20896 91.7902 4.45527 91.201 4.43474C90.6118 4.45527 90.0226 4.20896 89.596 3.79844C89.1693 3.38793 88.9458 2.81321 88.9458 2.23849ZM89.4537 20.1164V7.00045L92.989 7.00045V20.1164H89.4537ZM108.308 20.1164H104.346L101.563 15.9291L98.7591 20.1164L94.7972 20.1164L99.5515 13.3634L95.1223 7.00045L99.0842 7.00045L101.583 10.7977L104.042 7.00045L108.004 7.00045L103.534 13.3429L108.308 20.1164ZM84.1306 3.8395L80.6156 3.8395V7.12361L78.0556 7.12361V10.1204H80.6563V20.1164L84.0899 20.1164V10.1204L87.2594 10.1204V7.12361L84.1306 7.12361V3.8395Z" fill="#020203"/>
<path d="M79.08 28.6231C79.08 28.9079 79.0393 29.1723 78.9374 29.4368C78.8355 29.6605 78.7132 29.864 78.5297 30.047C78.3667 30.2098 78.1628 30.3522 77.9386 30.4335C77.7144 30.5353 77.4494 30.5759 77.2049 30.5759C77.001 30.5759 76.8176 30.5353 76.6342 30.4742C76.4915 30.4132 76.3488 30.3318 76.2265 30.2301V30.4946H75.1055V25.1038H76.2265V26.955C76.3488 26.8533 76.4711 26.7923 76.6138 26.7312C76.7972 26.6499 76.9807 26.6295 77.1845 26.6295C77.4291 26.6295 77.694 26.6702 77.9182 26.7719C78.1425 26.8736 78.3463 26.9957 78.5093 27.1788C78.6928 27.3618 78.8151 27.5653 78.917 27.8094C79.0189 28.0738 79.08 28.3383 79.08 28.6231ZM76.2061 28.6231C76.1857 28.8875 76.2877 29.1316 76.4507 29.3351C76.6138 29.5181 76.838 29.6198 77.0622 29.5995C77.3068 29.5995 77.531 29.4978 77.694 29.3351C78.0405 28.9282 78.0405 28.3179 77.694 27.9111C77.531 27.728 77.3068 27.6263 77.0622 27.6466C76.8176 27.6466 76.5934 27.7483 76.4507 27.9111C76.2877 28.0942 76.2061 28.3586 76.2061 28.6231ZM81.4444 31.9999H80.2826L80.8941 30.5149L79.4265 26.7312H80.6495L81.5056 29.0706L82.382 26.7312L83.5438 26.7312L81.4444 31.9999ZM86.6216 30.4946V25.1038H87.763V30.4946H86.6216ZM90.0254 28.6231V30.5149H88.9248V26.7312H90.005V26.9957C90.1273 26.894 90.2496 26.8126 90.3923 26.7516C90.5554 26.6905 90.7388 26.6499 90.9019 26.6499C91.3095 26.6295 91.7172 26.7922 92.0229 27.077C92.3286 27.4229 92.4713 27.8704 92.4509 28.3179V30.5149H91.3503V28.3993C91.3503 28.2162 91.3095 28.0331 91.2076 27.8704C91.1057 27.728 90.9222 27.6263 90.7184 27.6466C90.4942 27.6263 90.2904 27.728 90.1885 27.9111C90.0662 28.1348 90.005 28.379 90.0254 28.6231ZM96.9147 26.7312L95.5694 30.5149L94.4484 30.5149L93.1236 26.7312H94.2853L95.0191 29.0706L95.7529 26.7312L96.9147 26.7312ZM97.5465 25.6531C97.5465 25.4903 97.6077 25.3276 97.73 25.2055C97.8523 25.0835 98.0153 25.0225 98.1784 25.0225C98.3456 25.0235 98.5057 25.0903 98.624 25.2083C98.7423 25.3264 98.8092 25.4862 98.8103 25.6531C98.8103 25.8158 98.7491 25.9786 98.6268 26.1006C98.5045 26.2227 98.3415 26.2837 98.1784 26.2837C98.0112 26.2826 97.851 26.2158 97.7328 26.0978C97.6145 25.9798 97.5476 25.82 97.5465 25.6531ZM97.6281 30.4946V26.7312H98.7287V30.5149H97.6281V30.4946ZM102.601 29.0706L103.335 29.7826C103.152 30.0267 102.907 30.2301 102.642 30.3725C102.336 30.5149 102.01 30.5963 101.684 30.5759C101.419 30.5759 101.134 30.5353 100.889 30.4335C100.645 30.3318 100.441 30.2098 100.257 30.0267C100.074 29.8471 99.9285 29.6327 99.8294 29.3961C99.6255 28.8875 99.6255 28.3383 99.8294 27.8297C99.9313 27.6059 100.074 27.3822 100.257 27.2194C100.441 27.0364 100.645 26.9143 100.889 26.8126C101.134 26.7109 101.419 26.6499 101.684 26.6702C101.99 26.6499 102.316 26.7312 102.581 26.8736C102.826 27.016 103.07 27.1991 103.254 27.4229L102.52 28.1348C102.418 28.0128 102.296 27.9111 102.173 27.8094C102.031 27.728 101.888 27.6873 101.725 27.6873C101.48 27.6873 101.236 27.7687 101.073 27.9518C100.905 28.1395 100.813 28.382 100.813 28.6332C100.813 28.8845 100.905 29.127 101.073 29.3147C101.236 29.4978 101.48 29.5792 101.725 29.5792C101.908 29.5792 102.071 29.5385 102.214 29.4571C102.357 29.335 102.499 29.213 102.601 29.0706ZM105.496 30.5149C105.129 30.5353 104.762 30.4132 104.497 30.1691C104.273 29.8843 104.15 29.5385 104.171 29.1723V27.7483H103.682V26.7312H104.171V25.6734H105.271V26.7312H106.107V27.7483H105.271V29.0503C105.251 29.1927 105.292 29.3351 105.394 29.4164C105.516 29.4774 105.638 29.5181 105.761 29.5181H106.087V30.5149H105.496ZM107.045 25.6531C107.045 25.4903 107.106 25.3276 107.228 25.2055C107.35 25.0835 107.514 25.0225 107.677 25.0225C107.844 25.0235 108.004 25.0903 108.122 25.2083C108.24 25.3264 108.307 25.4862 108.308 25.6531C108.308 25.8158 108.247 25.9786 108.125 26.1006C108.003 26.2227 107.84 26.2837 107.677 26.2837C107.514 26.2837 107.35 26.2227 107.228 26.1006C107.126 25.9989 107.045 25.8362 107.045 25.6531ZM107.147 30.4946V26.7312H108.247V30.5149H107.147V30.4946Z" fill="#020203"/>
</svg>
